<?xml version="1.0" standalone="no"?>
<!DOCTYPE svg PUBLIC "-//W3C//DTD SVG 20010904//EN"
 "http://www.w3.org/TR/2001/REC-SVG-20010904/DTD/svg10.dtd">
<svg version="1.0" xmlns="http://www.w3.org/2000/svg"
 width="133.000000pt" height="133.000000pt" viewBox="0 0 133.000000 133.000000"
 preserveAspectRatio="xMidYMid meet">
<metadata>
Created by potrace 1.11, written by Peter Selinger 2001-2013
</metadata>
<g transform="translate(0.000000,133.000000) scale(0.100000,-0.100000)"
fill="#000000" stroke="none">
<path d="M618 1148 c5 -7 15 -39 22 -70 14 -64 24 -67 35 -11 l8 38 11 -37
c17 -56 23 -54 37 9 7 32 17 64 22 71 7 8 4 12 -10 12 -16 0 -18 -6 -15 -35 5
-46 -15 -46 -24 0 -8 43 -19 38 -29 -12 l-8 -38 -8 30 c-5 17 -7 36 -4 43 3 7
-5 12 -22 12 -19 0 -23 -3 -15 -12z"/>
<path d="M384 1133 c-6 -2 -9 -14 -7 -26 3 -14 -2 -29 -11 -36 -22 -18 -20
-54 3 -75 14 -13 24 -14 45 -6 18 6 25 14 20 22 -5 7 -15 38 -24 69 -8 31 -20
54 -26 52z m15 -95 c6 -17 8 -34 5 -37 -8 -9 -34 30 -34 51 0 29 17 21 29 -14z"/>
<path d="M517 1103 c-3 -2 -1 -20 4 -40 4 -20 6 -41 3 -45 -3 -4 2 -8 12 -8
13 0 16 7 11 36 -4 25 -2 37 9 41 22 8 16 21 -11 21 -13 0 -26 -2 -28 -5z"/>
<path d="M772 1098 c-18 -18 -15 -77 4 -85 24 -9 49 10 52 41 6 45 -29 71 -56
44z m38 -28 c0 -25 -10 -50 -21 -50 -10 0 -12 40 -3 64 8 20 24 11 24 -14z"/>
<path d="M1010 1095 c0 -8 -15 -21 -34 -29 -56 -23 -59 -89 -4 -93 20 -2 25 5
41 57 20 68 21 80 7 80 -5 0 -10 -7 -10 -15z m-25 -74 c-7 -32 -25 -43 -25
-15 0 19 20 57 27 51 3 -3 2 -19 -2 -36z"/>
<path d="M444 1074 c-8 -33 11 -76 33 -72 9 2 18 9 21 17 3 8 0 11 -6 8 -5 -4
-15 0 -23 9 -10 13 -9 16 10 21 14 4 20 11 17 20 -3 8 -6 17 -6 19 0 2 -9 4
-20 4 -13 0 -22 -9 -26 -26z m31 6 c3 -5 1 -10 -4 -10 -6 0 -11 5 -11 10 0 6
2 10 4 10 3 0 8 -4 11 -10z"/>
<path d="M856 1064 c-4 -19 -10 -42 -13 -50 -3 -8 1 -14 10 -14 9 0 17 14 21
40 3 22 11 40 17 40 10 0 10 -17 -3 -69 -2 -8 2 -15 9 -18 7 -3 14 13 19 42 7
52 8 50 -27 59 -24 5 -27 3 -33 -30z"/>
<path d="M194 1054 c-10 -8 -13 -13 -7 -9 17 8 58 -77 49 -100 -10 -27 -29
-13 -57 42 -21 41 -29 49 -42 41 -15 -8 -15 -10 1 -27 9 -10 25 -32 34 -50 20
-37 42 -48 63 -31 20 17 19 43 -5 91 -12 22 -18 44 -15 49 9 14 2 12 -21 -6z"/>
<path d="M273 1042 c-20 -15 -20 -19 -7 -36 7 -11 14 -28 14 -38 0 -10 7 -18
15 -18 18 0 18 -1 0 43 -9 23 -11 38 -5 42 10 6 30 -34 30 -60 0 -8 7 -11 19
-8 18 4 18 6 -3 46 -26 48 -34 52 -63 29z"/>
<path d="M1042 1024 c-14 -10 -22 -25 -22 -45 0 -32 24 -49 43 -30 8 8 7 11
-6 11 -10 0 -17 8 -17 19 0 14 6 17 26 13 22 -4 25 -2 22 18 -4 30 -18 34 -46
14z m28 -10 c0 -8 -5 -12 -10 -9 -6 4 -8 11 -5 16 9 14 15 11 15 -7z"/>
<path d="M1094 964 c-17 -36 -18 -44 -6 -49 18 -7 22 -6 20 3 -5 19 15 52 33
52 26 0 24 15 -3 27 -21 9 -25 5 -44 -33z"/>
<path d="M540 940 c-116 -29 -195 -93 -229 -185 -19 -52 -28 -84 -30 -109 -1
-6 -6 -5 -13 2 -9 9 -9 15 0 24 17 17 15 28 -4 28 -11 0 -14 5 -10 17 7 18 -9
33 -36 33 -11 0 -18 -8 -18 -20 0 -11 -4 -20 -10 -20 -5 0 -10 5 -10 12 0 6
-3 8 -7 5 -6 -7 25 -47 37 -47 4 0 6 10 6 21 -1 14 6 23 19 25 20 3 20 2 1
-11 -18 -14 -18 -16 -3 -33 9 -10 17 -27 17 -38 -1 -14 -5 -11 -15 11 -7 17
-14 24 -14 16 -1 -9 -13 -4 -37 14 l-37 28 5 -27 c5 -26 4 -27 -10 -12 -14 13
-14 21 -5 46 6 17 7 30 2 30 -5 0 -9 4 -9 10 0 5 8 7 18 3 14 -5 15 -3 5 8
-10 10 -16 10 -25 1 -17 -17 -14 -109 4 -130 21 -24 20 -60 -1 -72 -10 -5 -21
-7 -25 -5 -3 3 -4 2 -1 -2 6 -7 -41 -33 -61 -33 -24 0 -15 52 16 99 17 24 30
50 30 57 0 22 -12 44 -23 44 -7 0 -7 -4 1 -12 19 -19 15 -37 -19 -89 -36 -57
-37 -102 -2 -107 23 -3 22 -32 -2 -32 -17 0 -25 -23 -14 -41 7 -11 9 -11 9 3
0 10 9 22 20 28 11 6 20 17 20 25 0 14 12 24 81 69 33 22 39 22 69 10 29 -12
31 -16 19 -31 -13 -15 -12 -15 8 -5 27 15 39 32 21 32 -7 0 -20 5 -28 10 -23
15 7 32 32 19 15 -8 23 -5 38 13 16 19 19 20 20 6 0 -9 4 -19 9 -22 5 -3 6 14
4 39 -3 24 -2 52 2 62 5 10 9 20 10 23 16 62 67 111 146 140 48 19 83 24 154
24 160 0 273 -61 300 -164 1 -3 5 -13 10 -23 4 -10 5 -38 2 -62 -2 -25 -1 -42
4 -39 5 3 9 13 9 22 1 14 4 13 20 -6 15 -18 23 -21 38 -13 25 13 55 -4 32 -19
-8 -5 -21 -10 -28 -10 -18 0 -6 -17 21 -32 20 -10 21 -10 8 5 -12 15 -10 19
19 31 30 12 36 12 69 -10 69 -45 81 -55 81 -69 0 -8 9 -19 20 -25 11 -6 20
-18 20 -28 0 -14 2 -14 9 -3 11 18 3 41 -14 41 -24 0 -25 29 -2 32 35 5 34 50
-2 107 -34 52 -38 70 -19 89 8 8 8 12 1 12 -11 0 -23 -22 -23 -44 0 -7 13 -33
30 -57 31 -47 40 -99 16 -99 -20 0 -67 26 -61 33 3 4 2 5 -1 2 -4 -2 -15 0
-25 5 -21 12 -22 48 -1 72 18 21 21 113 4 130 -9 9 -15 9 -24 -1 -11 -11 -10
-13 5 -8 9 4 17 2 17 -3 0 -6 -4 -10 -9 -10 -5 0 -4 -13 2 -30 9 -25 9 -33 -5
-46 -14 -15 -15 -14 -10 12 l5 27 -37 -28 c-24 -18 -36 -23 -37 -14 0 8 -7 1
-14 -16 -10 -22 -14 -25 -15 -11 0 11 8 28 17 38 15 17 15 19 -3 33 -19 13
-19 14 1 11 13 -2 20 -11 19 -25 0 -11 2 -21 6 -21 12 0 43 40 37 47 -4 3 -7
1 -7 -5 0 -7 -4 -12 -10 -12 -5 0 -10 9 -10 20 0 12 -7 20 -17 20 -28 0 -44
-15 -37 -33 4 -12 1 -17 -10 -17 -19 0 -21 -11 -4 -28 9 -9 9 -15 0 -24 -9 -9
-12 -9 -12 0 0 7 0 13 1 15 0 1 -12 36 -27 77 -32 90 -80 140 -169 178 -49 21
-79 26 -170 28 -60 2 -126 -1 -145 -6z m235 -10 c79 -17 128 -41 173 -86 44
-44 63 -87 79 -176 8 -42 -12 -33 -27 12 -7 22 -18 40 -24 40 -6 0 -3 7 7 14
21 16 22 27 2 20 -8 -4 -15 -1 -15 5 0 17 -96 111 -113 111 -8 0 -29 8 -48 17
-26 13 -60 17 -144 17 -84 0 -118 -4 -144 -17 -19 -9 -40 -17 -48 -17 -15 0
-107 -88 -115 -110 -2 -8 -9 -10 -16 -6 -20 12 -4 46 43 93 41 41 91 66 165
83 48 11 176 11 225 0z m-422 -209 c-6 -3 -16 -23 -24 -43 -24 -69 -39 -41
-17 31 11 34 15 38 32 29 10 -6 14 -13 9 -17z m-133 -113 c0 -18 -27 11 -33
35 -6 22 -6 22 14 -2 10 -13 19 -28 19 -33z m923 32 c-5 -21 -33 -49 -33 -33
0 9 29 53 35 53 2 0 1 -9 -2 -20z"/>
<path d="M555 871 c-56 -16 -100 -40 -132 -73 -36 -38 -67 -121 -58 -156 8
-33 -3 -62 -24 -62 -10 0 -20 -3 -24 -6 -10 -11 16 -58 50 -91 35 -34 42 -53
20 -53 -8 0 -32 -13 -53 -28 -86 -61 -115 -76 -125 -61 -12 19 -158 17 -170
-2 -14 -22 -11 -34 17 -64 24 -26 29 -27 83 -22 32 4 66 9 77 13 14 4 15 3 5
-4 -9 -7 -10 -12 -2 -16 6 -4 11 -15 11 -24 0 -15 -12 -17 -95 -17 -52 1 -95
-3 -95 -7 0 -9 7 -10 60 -13 19 -2 58 -6 85 -10 37 -5 55 -3 70 8 17 13 23 13
47 1 15 -8 34 -11 43 -8 23 9 35 45 23 67 -7 14 -5 24 8 38 19 21 13 24 -17 8
-16 -8 -18 -17 -13 -45 9 -47 -15 -46 -47 3 l-24 38 80 52 c44 29 87 53 95 53
13 0 13 -1 0 -10 -13 -9 -13 -11 0 -20 22 -15 35 -6 33 23 -1 25 -1 25 30 12
67 -27 241 -27 308 0 13 5 15 1 11 -21 -4 -23 -2 -26 12 -21 9 4 14 3 11 -2
-8 -14 -103 -47 -156 -55 -64 -9 -175 10 -228 40 -24 13 -44 23 -45 22 -1 -2
-7 -14 -15 -27 -12 -22 -11 -26 8 -42 26 -21 129 -56 191 -64 74 -10 263 38
283 72 8 13 -5 73 -13 68 -5 -3 -11 -1 -15 5 -11 17 26 11 55 -10 15 -11 56
-33 91 -50 35 -16 56 -30 46 -30 -10 0 -27 -16 -38 -35 -12 -19 -24 -35 -28
-35 -16 0 -19 13 -10 37 10 26 -2 53 -23 53 -6 0 -5 -6 1 -14 10 -11 9 -21 -2
-43 -21 -40 -6 -63 39 -63 21 0 37 6 40 14 5 12 10 12 34 -2 26 -15 33 -15 62
-3 18 8 52 14 76 13 23 0 42 2 42 6 0 11 -95 13 -123 3 -37 -14 -51 7 -26 37
16 20 24 23 58 17 21 -3 57 -2 79 4 32 9 42 18 51 43 15 42 14 58 -3 58 -8 0
-16 5 -18 12 -6 18 -48 21 -48 3 0 -10 -10 -15 -27 -15 -16 -1 -39 -7 -52 -14
l-25 -14 32 -7 c18 -4 51 -4 75 -1 31 4 35 3 17 -3 -62 -22 -142 -1 -255 67
l-67 40 39 38 c40 40 67 87 56 98 -4 3 -14 6 -24 6 -21 0 -32 29 -23 64 16 66
-52 169 -140 210 -46 21 -218 32 -271 17z m260 -37 c46 -22 92 -60 107 -89 52
-96 1 -209 -116 -257 -28 -12 -71 -17 -138 -17 -108 -1 -164 14 -211 58 l-27
25 22 13 c29 16 53 16 93 2 48 -18 83 -5 93 34 l8 32 15 -30 c19 -39 45 -44
53 -11 8 34 17 33 39 -6 21 -37 28 -32 59 47 21 52 28 60 54 63 31 4 54 18 54
34 0 5 -10 2 -22 -6 -12 -9 -41 -16 -63 -17 -22 0 -35 -3 -28 -5 9 -4 9 -13 1
-37 -6 -18 -14 -36 -18 -40 -10 -11 -53 60 -45 73 4 6 -6 10 -24 10 -29 0 -30
0 -15 -27 16 -32 18 -50 5 -57 -14 -9 -52 56 -40 70 7 8 3 13 -14 16 -36 7
-48 0 -35 -22 8 -12 8 -31 2 -61 -8 -38 -13 -44 -34 -44 -21 0 -27 7 -34 38
-7 27 -6 44 2 58 17 27 16 29 -23 29 -33 0 -34 -2 -30 -30 15 -94 17 -87 -18
-94 -18 -4 -40 -7 -49 -7 -10 0 -18 -6 -18 -12 -1 -7 -8 4 -16 23 -19 42 -20
110 -3 142 27 52 101 104 174 122 45 11 200 -2 240 -20z m-425 -265 c0 -14 81
-89 96 -89 6 0 26 -7 44 -17 25 -12 61 -16 135 -16 74 0 110 4 135 16 18 10
38 17 44 17 15 0 96 75 96 89 0 5 5 13 11 17 24 15 -5 -40 -39 -75 -109 -109
-381 -109 -493 0 -35 34 -65 90 -40 75 6 -4 11 -12 11 -17z m-22 -17 c2 -6 20
-28 39 -47 112 -112 397 -113 514 -3 20 19 38 40 41 48 5 15 38 23 38 8 0 -28
-91 -127 -118 -128 -7 0 -26 -7 -43 -15 -78 -41 -270 -37 -366 8 -75 35 -143
99 -143 135 0 14 33 8 38 -6z m-199 -238 c2 -2 -21 -4 -53 -4 -37 0 -55 4 -51
10 6 10 92 4 104 -6z"/>
<path d="M871 756 c-8 -10 -9 -16 -1 -21 5 -3 13 1 16 9 3 9 11 13 17 9 6 -3
7 -1 3 5 -10 16 -21 15 -35 -2z"/>
<path d="M183 769 c-1 -12 3 -16 13 -12 18 7 19 30 1 30 -7 0 -14 -8 -14 -18z"/>
<path d="M1120 774 c0 -6 6 -14 14 -17 10 -4 14 0 13 12 -1 20 -27 25 -27 5z"/>
<path d="M13 728 c-11 -19 -12 -67 -1 -74 17 -11 38 18 38 52 0 35 -21 47 -37
22z m27 -22 c0 -13 -6 -28 -13 -34 -10 -9 -12 -4 -9 23 5 39 22 48 22 11z"/>
<path d="M1280 706 c0 -34 21 -63 38 -52 11 7 10 55 -1 74 -16 25 -37 13 -37
-22z m32 -11 c3 -27 1 -32 -9 -23 -15 12 -18 58 -4 58 5 0 11 -16 13 -35z"/>
<path d="M200 536 c0 -2 7 -6 15 -10 8 -3 15 -1 15 4 0 6 -7 10 -15 10 -8 0
-15 -2 -15 -4z"/>
<path d="M1100 530 c0 -5 7 -7 15 -4 8 4 15 8 15 10 0 2 -7 4 -15 4 -8 0 -15
-4 -15 -10z"/>
<path d="M145 496 c-16 -20 -38 -37 -53 -39 l-27 -4 26 -2 c15 0 32 5 38 13
16 19 59 8 63 -17 2 -11 10 -22 18 -25 12 -4 13 -2 3 9 -7 7 -13 21 -13 31 0
10 -6 18 -14 18 -21 0 -27 28 -8 39 9 6 12 11 5 11 -7 0 -24 -15 -38 -34z"/>
<path d="M1152 519 c19 -11 13 -39 -8 -39 -8 0 -14 -8 -14 -18 0 -10 -6 -24
-12 -31 -11 -11 -10 -13 2 -9 8 3 16 14 18 25 4 25 47 36 63 17 6 -8 23 -13
38 -13 l26 2 -27 4 c-15 2 -37 19 -53 39 -14 19 -31 34 -38 34 -7 0 -4 -5 5
-11z"/>
<path d="M240 500 c0 -19 3 -21 12 -12 9 9 9 15 0 24 -9 9 -12 7 -12 -12z"/>
<path d="M1074 509 c-3 -6 -1 -16 5 -22 8 -8 11 -5 11 11 0 24 -5 28 -16 11z"/>
<path d="M270 429 c0 -5 -10 -9 -22 -9 -22 -1 -21 -2 5 -16 28 -15 67 -11 67
7 0 5 1 12 3 15 1 4 -10 8 -25 10 -16 1 -28 -2 -28 -7z m30 -19 c-19 -13 -30
-13 -30 0 0 6 10 10 23 10 18 0 19 -2 7 -10z"/>
<path d="M1004 428 c-6 -9 25 -38 39 -38 7 1 23 7 37 15 25 14 25 14 3 15 -13
0 -23 4 -23 9 0 10 -50 10 -56 -1z m56 -18 c0 -13 -11 -13 -30 0 -12 8 -11 10
8 10 12 0 22 -4 22 -10z"/>
<path d="M25 410 c3 -5 8 -10 11 -10 2 0 4 5 4 10 0 6 -5 10 -11 10 -5 0 -7
-4 -4 -10z"/>
<path d="M1290 409 c0 -5 5 -7 10 -4 6 3 10 8 10 11 0 2 -4 4 -10 4 -5 0 -10
-5 -10 -11z"/>
<path d="M64 389 c-2 -4 3 -9 11 -13 8 -3 15 -1 15 5 0 6 5 7 10 4 6 -3 10 -2
10 4 0 11 -39 11 -46 0z"/>
</g>
</svg>
